<svg width="33" height="32" viewBox="0 0 33 32" fill="none" xmlns="http://www.w3.org/2000/svg">
<path d="M24.5443 20.4723C23.3406 18.999 22.4907 18.249 22.4907 14.1873C22.4907 10.4678 20.5913 9.14262 19.0281 8.49902C18.8204 8.41371 18.6249 8.21777 18.5617 8.00449C18.2874 7.07121 17.5187 6.24902 16.4968 6.24902C15.4749 6.24902 14.7057 7.07168 14.4343 8.00543C14.371 8.22106 14.1756 8.41371 13.9679 8.49902C12.4028 9.14356 10.5053 10.464 10.5053 14.1873C10.5029 18.249 9.65306 18.999 8.44931 20.4723C7.95056 21.0826 8.38744 21.999 9.25978 21.999H23.7385C24.6062 21.999 25.0403 21.0798 24.5443 20.4723Z" stroke="#5C5D61" stroke-width="1.5" stroke-linecap="round" stroke-linejoin="round"/>
<path d="M19.4979 21.999V22.7491C19.4979 23.5449 19.1818 24.3081 18.6191 24.8708C18.0564 25.4334 17.2933 25.7496 16.4975 25.7496C15.7017 25.7496 14.9386 25.4334 14.3759 24.8708C13.8132 24.3081 13.4971 23.5449 13.4971 22.7491V21.999" stroke="#5C5D61" stroke-width="1.5" stroke-linecap="round" stroke-linejoin="round"/>
</svg>
