<svg width="25" height="24" viewBox="0 0 25 24" fill="none" xmlns="http://www.w3.org/2000/svg">
<path d="M4.59723 17.8125C4.65301 17.6072 4.52973 17.3217 4.41208 17.1159C4.37544 17.0546 4.3357 16.9951 4.29301 16.9378C3.28392 15.4075 2.74608 13.6147 2.74614 11.7816C2.72973 6.51984 7.09286 2.25 12.4882 2.25C17.1935 2.25 21.1211 5.50969 22.039 9.83672C22.1765 10.4782 22.2459 11.1325 22.2461 11.7886C22.2461 17.0578 18.0513 21.3947 12.656 21.3947C11.7982 21.3947 10.6404 21.1791 10.009 21.0023C9.37755 20.8256 8.74708 20.5913 8.58442 20.5284C8.41807 20.4645 8.24139 20.4316 8.06317 20.4314C7.86851 20.4307 7.67571 20.4694 7.49645 20.5453L4.31692 21.6928C4.24726 21.7228 4.17346 21.7421 4.09801 21.75C4.03848 21.7498 3.97958 21.7378 3.92471 21.7147C3.86985 21.6916 3.82011 21.6579 3.77839 21.6154C3.73666 21.5729 3.70378 21.5226 3.68164 21.4673C3.6595 21.4121 3.64855 21.353 3.64942 21.2934C3.65333 21.2412 3.66276 21.1895 3.67755 21.1392L4.59723 17.8125Z" stroke="#6F7075" stroke-width="1.5" stroke-miterlimit="10" stroke-linecap="round"/>
</svg>
