<svg width="25" height="24" viewBox="0 0 25 24" fill="none" xmlns="http://www.w3.org/2000/svg">
<path d="M4.24609 9.9375V21C4.24609 21.1989 4.32511 21.3897 4.46576 21.5303C4.60642 21.671 4.79718 21.75 4.99609 21.75H9.49609V15.375C9.49609 15.0766 9.61462 14.7905 9.8256 14.5795C10.0366 14.3685 10.3227 14.25 10.6211 14.25H14.3711C14.6695 14.25 14.9556 14.3685 15.1666 14.5795C15.3776 14.7905 15.4961 15.0766 15.4961 15.375V21.75H19.9961C20.195 21.75 20.3858 21.671 20.5264 21.5303C20.6671 21.3897 20.7461 21.1989 20.7461 21V9.9375" stroke="#6F7075" stroke-width="1.5" stroke-linecap="round" stroke-linejoin="round"/>
<path d="M22.9961 11.9999L13.0066 2.43741C12.7722 2.18991 12.2242 2.1871 11.9856 2.43741L1.99609 11.9999" stroke="#6F7075" stroke-width="1.5" stroke-linecap="round" stroke-linejoin="round"/>
<path d="M19.2461 8.39062V3H16.9961V6.23438" stroke="#6F7075" stroke-width="1.5" stroke-linecap="round" stroke-linejoin="round"/>
</svg>
