<svg width="33" height="32" viewBox="0 0 33 32" fill="none" xmlns="http://www.w3.org/2000/svg">
<path d="M14.8607 7.00171C13.4043 7.00171 11.9806 7.43358 10.7697 8.2427C9.55874 9.05182 8.61493 10.2019 8.05759 11.5474C7.50026 12.8929 7.35444 14.3735 7.63856 15.8019C7.92269 17.2303 8.624 18.5423 9.65382 19.5721C10.6836 20.602 11.9957 21.3033 13.4241 21.5874C14.8525 21.8715 16.3331 21.7257 17.6786 21.1684C19.0241 20.611 20.1741 19.6672 20.9833 18.4563C21.7924 17.2454 22.2243 15.8217 22.2243 14.3653C22.2241 12.4124 21.4483 10.5395 20.0674 9.15859C18.6865 7.77768 16.8136 7.00183 14.8607 7.00171V7.00171Z" stroke="#5C5D61" stroke-width="1.5" stroke-miterlimit="10"/>
<path d="M20.3535 19.8589L25.4983 25.0036" stroke="#5C5D61" stroke-width="1.5" stroke-miterlimit="10" stroke-linecap="round"/>
</svg>
